SplineFontDB: 3.0
FontName: Grotesk-Medium
FullName: Grotesk Medium
FamilyName: Grotesk Medium
Weight: Medium
Copyright: Copyright (c) 2010-2016 by Frank Adebiaye. Certains droits re'serve's
Version: 2.0
ItalicAngle: 0
UnderlinePosition: 0
UnderlineWidth: 0
Ascent: 800
Descent: 200
InvalidEm: 0
sfntRevision: 0x00020000
LayerCount: 2
Layer: 0 0 "Arri+AOgA-re" 1
Layer: 1 0 "Avant" 0
XUID: [1021 248 -1313058504 21072]
StyleMap: 0x0000
FSType: 0
OS2Version: 3
OS2_WeightWidthSlopeOnly: 0
OS2_UseTypoMetrics: 0
CreationTime: 1457292994
ModificationTime: 1458054871
PfmFamily: 17
TTFWeight: 500
TTFWidth: 5
LineGap: 0
VLineGap: 0
Panose: 2 0 6 3 0 0 0 0 0 0
OS2TypoAscent: 800
OS2TypoAOffset: 0
OS2TypoDescent: -200
OS2TypoDOffset: 0
OS2TypoLinegap: 90
OS2WinAscent: 791
OS2WinAOffset: 0
OS2WinDescent: 200
OS2WinDOffset: 0
HheadAscent: 791
HheadAOffset: 0
HheadDescent: -200
HheadDOffset: 0
OS2SubXSize: 650
OS2SubYSize: 700
OS2SubXOff: 0
OS2SubYOff: 140
OS2SupXSize: 650
OS2SupYSize: 700
OS2SupXOff: 0
OS2SupYOff: 480
OS2StrikeYSize: 49
OS2StrikeYPos: 258
OS2CapHeight: 649
OS2XHeight: 649
OS2CodePages: 00000001.00000000
OS2UnicodeRanges: 00000023.00000000.00000000.00000000
Lookup: 258 0 0 "'kern' Cr+AOkA-nage horizontal lookups0" { "sous-table 'kern' Cr+AOkA-nage horizontal lookups0" [150,15,0] } ['kern' ('DFLT' <'dflt' > ) ]
MarkAttachClasses: 1
DEI: 91125
LangName: 1033 "Copyright +AKkA 2010-2016 by Frank Adebiaye. Certains droits r+AOkA-serv+AOkA-s" "" "" "" "" "" "" "" "VTF" "Frank Adebiaye" "" "www.velvetyne.fr" "www.fadebiaye.com" "" "" "" "Grotesk" "Medium"
Encoding: UnicodeBmp
UnicodeInterp: none
NameList: AGL For New Fonts
DisplaySize: -48
AntiAlias: 1
FitToEm: 0
WinInfo: 38 38 14
BeginPrivate: 2
BlueValues 13 [0 0 649 650]
BlueShift 1 0
EndPrivate
BeginChars: 65537 129

StartChar: .notdef
Encoding: 65536 -1 0
Width: 500
Flags: W
LayerCount: 2
Fore
SplineSet
50 0 m 1
 450 0 l 1
 450 533 l 1
 50 533 l 1
 50 0 l 1
100 50 m 1
 100 483 l 1
 400 483 l 1
 400 50 l 1
 100 50 l 1
EndSplineSet
Validated: 9
EndChar

StartChar: A
Encoding: 65 65 1
Width: 733
GlyphClass: 2
Flags: W
LayerCount: 2
Fore
SplineSet
208 0 m 1
 259 158 l 1
 464 158 l 1
 517 0 l 1
 633 0 l 1
 419 648 l 1
 305 648 l 1
 100 0 l 1
 208 0 l 1
361 465 m 1
 424 275 l 1
 298 275 l 1
 361 465 l 1
EndSplineSet
Validated: 9
EndChar

StartChar: Aacute
Encoding: 193 193 2
Width: 733
GlyphClass: 2
Flags: W
LayerCount: 2
Fore
SplineSet
208 0 m 1
 259 158 l 1
 464 158 l 1
 517 0 l 1
 633 0 l 1
 419 648 l 1
 305 648 l 1
 100 0 l 1
 208 0 l 1
361 465 m 1
 424 275 l 1
 298 275 l 1
 361 465 l 1
422 701 m 1
 467 789 l 1
 349 789 l 1
 305 701 l 1
 422 701 l 1
EndSplineSet
Validated: 9
EndChar

StartChar: Acircumflex
Encoding: 194 194 3
Width: 733
GlyphClass: 2
Flags: W
LayerCount: 2
Fore
SplineSet
208 0 m 1
 259 158 l 1
 464 158 l 1
 517 0 l 1
 633 0 l 1
 419 648 l 1
 305 648 l 1
 100 0 l 1
 208 0 l 1
361 465 m 1
 424 275 l 1
 298 275 l 1
 361 465 l 1
534 701 m 1
 432 780 l 1
 306 780 l 1
 204 701 l 1
 534 701 l 1
EndSplineSet
Validated: 9
EndChar

StartChar: Adieresis
Encoding: 196 196 4
Width: 733
GlyphClass: 2
Flags: W
LayerCount: 2
Fore
SplineSet
208 0 m 1
 259 158 l 1
 464 158 l 1
 517 0 l 1
 633 0 l 1
 419 648 l 1
 305 648 l 1
 100 0 l 1
 208 0 l 1
361 465 m 1
 424 275 l 1
 298 275 l 1
 361 465 l 1
329 734 m 0
 329 760 308 782 281 782 c 0
 254 782 233 760 233 734 c 0
 233 707 254 685 281 685 c 0
 308 685 329 707 329 734 c 0
494 734 m 0
 494 760 473 782 447 782 c 0
 419 782 398 760 398 734 c 0
 398 707 419 685 447 685 c 0
 473 685 494 707 494 734 c 0
EndSplineSet
Validated: 9
EndChar

StartChar: Agrave
Encoding: 192 192 5
Width: 733
GlyphClass: 2
Flags: W
LayerCount: 2
Fore
SplineSet
208 0 m 1
 259 158 l 1
 464 158 l 1
 517 0 l 1
 633 0 l 1
 419 648 l 1
 305 648 l 1
 100 0 l 1
 208 0 l 1
361 465 m 1
 424 275 l 1
 298 275 l 1
 361 465 l 1
421 701 m 1
 377 789 l 1
 259 789 l 1
 304 701 l 1
 421 701 l 1
EndSplineSet
Validated: 9
EndChar

StartChar: Aring
Encoding: 197 197 6
Width: 733
GlyphClass: 2
Flags: W
LayerCount: 2
Fore
SplineSet
208 0 m 1
 259 158 l 1
 464 158 l 1
 517 0 l 1
 633 0 l 1
 419 648 l 1
 305 648 l 1
 100 0 l 1
 208 0 l 1
361 465 m 1
 424 275 l 1
 298 275 l 1
 361 465 l 1
EndSplineSet
Validated: 9
EndChar

StartChar: Atilde
Encoding: 195 195 7
Width: 733
GlyphClass: 2
Flags: W
LayerCount: 2
Fore
SplineSet
208 0 m 1
 259 158 l 1
 464 158 l 1
 517 0 l 1
 633 0 l 1
 419 648 l 1
 305 648 l 1
 100 0 l 1
 208 0 l 1
361 465 m 1
 424 275 l 1
 298 275 l 1
 361 465 l 1
292 684 m 1
 292 739 379 681 443 681 c 0
 479 681 507 706 507 783 c 1
 442 783 l 1
 442 713 347 781 283 781 c 0
 249 781 223 757 223 684 c 1
 292 684 l 1
EndSplineSet
Validated: 41
EndChar

StartChar: B
Encoding: 66 66 8
Width: 636
GlyphClass: 2
Flags: W
LayerCount: 2
Fore
SplineSet
324 0 m 2
 441 3 536 99 536 218 c 0
 536 298 493 368 428 406 c 1
 429 414 430 422 430 430 c 0
 430 549 335 645 218 648 c 2
 105 648 l 1
 100 648 l 1
 100 0 l 1
 324 0 l 2
218 212 m 1
 284 214 344 246 383 295 c 1
 405 276 419 249 419 218 c 0
 419 162 373 117 318 117 c 2
 218 117 l 1
 218 212 l 1
218 531 m 1
 270 528 312 484 312 430 c 0
 312 376 270 333 218 330 c 1
 218 531 l 1
EndSplineSet
Validated: 9
EndChar

StartChar: C
Encoding: 67 67 9
Width: 637
GlyphClass: 2
Flags: W
LayerCount: 2
Fore
SplineSet
536 0 m 1
 537 117 l 1
 425 117 l 2
 310 117 218 210 218 324 c 0
 218 439 310 531 425 531 c 2
 537 531 l 1
 536 649 l 1
 419 649 l 2
 242 646 100 502 100 324 c 0
 100 147 242 3 419 0 c 2
 536 0 l 1
EndSplineSet
Validated: 9
EndChar

StartChar: D
Encoding: 68 68 10
Width: 637
GlyphClass: 2
Flags: W
LayerCount: 2
Fore
SplineSet
218 0 m 2
 394 3 537 147 537 324 c 0
 537 502 394 646 218 649 c 2
 100 649 l 1
 100 0 l 1
 218 0 l 2
218 531 m 1
 330 528 419 437 419 324 c 0
 419 212 330 120 218 117 c 1
 218 531 l 1
EndSplineSet
Validated: 9
EndChar

StartChar: E
Encoding: 69 69 11
Width: 530
GlyphClass: 2
Flags: W
LayerCount: 2
Fore
SplineSet
430 0 m 1
 430 117 l 1
 217 117 l 1
 217 266 l 1
 377 266 l 1
 377 383 l 1
 217 383 l 1
 217 531 l 1
 430 531 l 1
 430 649 l 1
 100 649 l 1
 100 0 l 1
 430 0 l 1
EndSplineSet
Validated: 9
EndChar

StartChar: Eacute
Encoding: 201 201 12
Width: 530
GlyphClass: 2
Flags: W
LayerCount: 2
Fore
SplineSet
430 0 m 1
 430 117 l 1
 217 117 l 1
 217 266 l 1
 377 266 l 1
 377 383 l 1
 217 383 l 1
 217 531 l 1
 430 531 l 1
 430 649 l 1
 100 649 l 1
 100 0 l 1
 430 0 l 1
333 701 m 1
 378 789 l 1
 260 789 l 1
 216 701 l 1
 333 701 l 1
EndSplineSet
Validated: 9
EndChar

StartChar: Ecircumflex
Encoding: 202 202 13
Width: 532
GlyphClass: 2
Flags: W
LayerCount: 2
Fore
SplineSet
430 0 m 1
 430 117 l 1
 217 117 l 1
 217 266 l 1
 377 266 l 1
 377 383 l 1
 217 383 l 1
 217 531 l 1
 430 531 l 1
 430 649 l 1
 100 649 l 1
 100 0 l 1
 430 0 l 1
432 701 m 1
 330 780 l 1
 204 780 l 1
 102 701 l 1
 432 701 l 1
EndSplineSet
Validated: 9
EndChar

StartChar: Edieresis
Encoding: 203 203 14
Width: 530
GlyphClass: 2
Flags: W
LayerCount: 2
Fore
SplineSet
430 0 m 1
 430 117 l 1
 217 117 l 1
 217 266 l 1
 377 266 l 1
 377 383 l 1
 217 383 l 1
 217 531 l 1
 430 531 l 1
 430 649 l 1
 100 649 l 1
 100 0 l 1
 430 0 l 1
233 741 m 0
 233 767 212 789 185 789 c 0
 158 789 137 767 137 741 c 0
 137 714 158 692 185 692 c 0
 212 692 233 714 233 741 c 0
398 741 m 0
 398 767 377 789 351 789 c 0
 323 789 302 767 302 741 c 0
 302 714 323 692 351 692 c 0
 377 692 398 714 398 741 c 0
EndSplineSet
Validated: 9
EndChar

StartChar: Egrave
Encoding: 200 200 15
Width: 530
GlyphClass: 2
Flags: W
LayerCount: 2
Fore
SplineSet
430 0 m 1
 430 117 l 1
 217 117 l 1
 217 266 l 1
 377 266 l 1
 377 383 l 1
 217 383 l 1
 217 531 l 1
 430 531 l 1
 430 649 l 1
 100 649 l 1
 100 0 l 1
 430 0 l 1
332 701 m 1
 288 789 l 1
 170 789 l 1
 215 701 l 1
 332 701 l 1
EndSplineSet
Validated: 9
EndChar

StartChar: F
Encoding: 70 70 16
Width: 530
GlyphClass: 2
Flags: W
LayerCount: 2
Fore
SplineSet
217 0 m 1
 217 266 l 1
 430 266 l 1
 430 383 l 1
 217 383 l 1
 217 531 l 1
 430 531 l 1
 430 649 l 1
 106 649 l 1
 100 649 l 1
 100 0 l 1
 217 0 l 1
EndSplineSet
Validated: 9
EndChar

StartChar: G
Encoding: 71 71 17
Width: 637
GlyphClass: 2
Flags: W
LayerCount: 2
Fore
SplineSet
537 0 m 1
 537 333 l 1
 419 333 l 1
 419 118 l 1
 307 121 218 212 218 325 c 0
 218 439 311 532 425 532 c 2
 537 532 l 1
 537 649 l 1
 419 649 l 2
 243 646 100 502 100 325 c 0
 100 148 242 4 419 0 c 1
 537 0 l 1
EndSplineSet
Validated: 9
EndChar

StartChar: H
Encoding: 72 72 18
Width: 637
GlyphClass: 2
Flags: W
LayerCount: 2
Fore
SplineSet
217 0 m 1
 217 266 l 1
 419 266 l 1
 419 0 l 1
 537 0 l 1
 537 649 l 1
 419 649 l 1
 419 383 l 1
 217 383 l 1
 217 649 l 1
 100 649 l 1
 100 0 l 1
 217 0 l 1
EndSplineSet
Validated: 9
EndChar

StartChar: I
Encoding: 73 73 19
Width: 318
GlyphClass: 2
Flags: W
LayerCount: 2
Fore
SplineSet
218 1 m 1
 218 650 l 1
 100 650 l 1
 100 1 l 1
 218 1 l 1
EndSplineSet
Validated: 9
EndChar

StartChar: Iacute
Encoding: 205 205 20
Width: 362
GlyphClass: 2
Flags: W
LayerCount: 2
Fore
SplineSet
218 1 m 1
 218 650 l 1
 100 650 l 1
 100 1 l 1
 218 1 l 1
217 701 m 1
 262 789 l 1
 144 789 l 1
 100 701 l 1
 217 701 l 1
EndSplineSet
Validated: 9
EndChar

StartChar: Icircumflex
Encoding: 206 206 21
Width: 530
GlyphClass: 2
Flags: W
LayerCount: 2
Fore
SplineSet
325 1 m 1
 325 650 l 1
 207 650 l 1
 207 1 l 1
 325 1 l 1
430 701 m 1
 328 780 l 1
 202 780 l 1
 100 701 l 1
 430 701 l 1
EndSplineSet
Validated: 9
EndChar

StartChar: Idieresis
Encoding: 207 207 22
Width: 461
GlyphClass: 2
Flags: W
LayerCount: 2
Fore
SplineSet
289 1 m 1
 289 650 l 1
 171 650 l 1
 171 1 l 1
 289 1 l 1
196 734 m 0
 196 760 175 782 148 782 c 0
 121 782 100 760 100 734 c 0
 100 707 121 685 148 685 c 0
 175 685 196 707 196 734 c 0
361 734 m 0
 361 760 340 782 314 782 c 0
 286 782 265 760 265 734 c 0
 265 707 286 685 314 685 c 0
 340 685 361 707 361 734 c 0
EndSplineSet
Validated: 9
EndChar

StartChar: Igrave
Encoding: 204 204 23
Width: 363
GlyphClass: 2
Flags: W
LayerCount: 2
Fore
SplineSet
263 1 m 1
 263 650 l 1
 145 650 l 1
 145 1 l 1
 263 1 l 1
262 701 m 1
 218 789 l 1
 100 789 l 1
 145 701 l 1
 262 701 l 1
EndSplineSet
Validated: 9
EndChar

StartChar: J
Encoding: 74 74 24
Width: 530
GlyphClass: 2
Flags: W
LayerCount: 2
Fore
SplineSet
430 139 m 2
 430 649 l 1
 312 649 l 1
 312 145 l 2
 312 119 291 97 265 97 c 0
 239 97 218 119 218 145 c 2
 218 276 l 1
 100 276 l 1
 100 139 l 2
 103 51 176 -20 265 -20 c 0
 354 -20 427 51 430 139 c 2
EndSplineSet
Validated: 9
EndChar

StartChar: K
Encoding: 75 75 25
Width: 639
GlyphClass: 2
Flags: W
LayerCount: 2
Fore
SplineSet
539 0 m 1
 376 331 l 1
 523 649 l 1
 396 649 l 1
 261 331 l 1
 217 331 l 1
 217 650 l 1
 111 650 l 1
 100 650 l 1
 100 1 l 1
 217 1 l 1
 217 213 l 1
 314 213 l 1
 421 0 l 1
 539 0 l 1
EndSplineSet
Validated: 9
EndChar

StartChar: L
Encoding: 76 76 26
Width: 584
GlyphClass: 2
Flags: W
LayerCount: 2
Fore
SplineSet
484 0 m 1
 484 117 l 1
 218 117 l 1
 218 649 l 1
 100 649 l 1
 100 0 l 1
 484 0 l 1
EndSplineSet
Validated: 9
EndChar

StartChar: M
Encoding: 77 77 27
Width: 849
GlyphClass: 2
Flags: W
LayerCount: 2
Fore
SplineSet
217 0 m 1
 217 467 l 1
 366 266 l 1
 483 266 l 1
 631 467 l 1
 631 0 l 1
 749 0 l 1
 749 649 l 1
 631 649 l 1
 424 387 l 1
 217 649 l 1
 100 649 l 1
 100 0 l 1
 217 0 l 1
EndSplineSet
Validated: 9
EndChar

StartChar: N
Encoding: 78 78 28
Width: 637
GlyphClass: 2
Flags: W
LayerCount: 2
Fore
SplineSet
218 0 m 1
 218 467 l 1
 366 266 l 1
 419 266 l 1
 419 0 l 1
 537 0 l 1
 537 649 l 1
 419 649 l 1
 419 394 l 1
 218 649 l 1
 100 649 l 1
 100 0 l 1
 218 0 l 1
EndSplineSet
Validated: 9
EndChar

StartChar: Ntilde
Encoding: 209 209 29
Width: 637
GlyphClass: 2
Flags: W
LayerCount: 2
Fore
SplineSet
218 0 m 1
 218 467 l 1
 366 266 l 1
 419 266 l 1
 419 0 l 1
 537 0 l 1
 537 649 l 1
 419 649 l 1
 419 394 l 1
 218 649 l 1
 100 649 l 1
 100 0 l 1
 218 0 l 1
246 684 m 1
 246 739 333 681 397 681 c 0
 433 681 461 706 461 783 c 1
 396 783 l 1
 396 713 301 781 237 781 c 0
 203 781 177 757 177 684 c 1
 246 684 l 1
EndSplineSet
Validated: 41
EndChar

StartChar: O
Encoding: 79 79 30
Width: 850
GlyphClass: 2
Flags: W
LayerCount: 2
Fore
SplineSet
750 324 m 0
 750 513 604 658 425 658 c 0
 246 658 100 513 100 324 c 0
 101 130 246 -15 425 -15 c 0
 604 -15 749 130 750 324 c 0
237 324 m 0
 236 465 325 532 429 532 c 0
 533 532 612 465 613 324 c 0
 614 181 530 112 425 112 c 0
 321 112 238 184 237 324 c 0
EndSplineSet
Validated: 41
EndChar

StartChar: Oacute
Encoding: 211 211 31
Width: 850
GlyphClass: 2
Flags: W
LayerCount: 2
Fore
SplineSet
750 324 m 0
 750 513 604 658 425 658 c 0
 246 658 100 513 100 324 c 0
 101 130 246 -15 425 -15 c 0
 604 -15 749 130 750 324 c 0
237 324 m 0
 236 465 325 532 429 532 c 0
 533 532 612 465 613 324 c 0
 614 181 530 112 425 112 c 0
 321 112 238 184 237 324 c 0
480 701 m 1
 525 789 l 1
 407 789 l 1
 363 701 l 1
 480 701 l 1
EndSplineSet
Validated: 41
EndChar

StartChar: Ocircumflex
Encoding: 212 212 32
Width: 850
GlyphClass: 2
Flags: W
LayerCount: 2
Fore
SplineSet
750 324 m 0
 750 513 604 658 425 658 c 0
 246 658 100 513 100 324 c 0
 101 130 246 -15 425 -15 c 0
 604 -15 749 130 750 324 c 0
237 324 m 0
 236 465 325 532 429 532 c 0
 533 532 612 465 613 324 c 0
 614 181 530 112 425 112 c 0
 321 112 238 184 237 324 c 0
590 701 m 1
 488 780 l 1
 362 780 l 1
 260 701 l 1
 590 701 l 1
EndSplineSet
Validated: 41
EndChar

StartChar: Odieresis
Encoding: 214 214 33
Width: 850
GlyphClass: 2
Flags: W
LayerCount: 2
Fore
SplineSet
750 324 m 0
 750 513 604 658 425 658 c 0
 246 658 100 513 100 324 c 0
 101 130 246 -15 425 -15 c 0
 604 -15 749 130 750 324 c 0
237 324 m 0
 236 465 325 532 429 532 c 0
 533 532 612 465 613 324 c 0
 614 181 530 112 425 112 c 0
 321 112 238 184 237 324 c 0
392 743 m 0
 392 769 371 791 344 791 c 0
 317 791 296 769 296 743 c 0
 296 716 317 694 344 694 c 0
 371 694 392 716 392 743 c 0
557 743 m 0
 557 769 536 791 510 791 c 0
 482 791 461 769 461 743 c 0
 461 716 482 694 510 694 c 0
 536 694 557 716 557 743 c 0
EndSplineSet
Validated: 41
EndChar

StartChar: Ograve
Encoding: 210 210 34
Width: 850
GlyphClass: 2
Flags: W
LayerCount: 2
Fore
SplineSet
750 324 m 0
 750 513 604 658 425 658 c 0
 246 658 100 513 100 324 c 0
 101 130 246 -15 425 -15 c 0
 604 -15 749 130 750 324 c 0
237 324 m 0
 236 465 325 532 429 532 c 0
 533 532 612 465 613 324 c 0
 614 181 530 112 425 112 c 0
 321 112 238 184 237 324 c 0
495 701 m 1
 451 789 l 1
 333 789 l 1
 378 701 l 1
 495 701 l 1
EndSplineSet
Validated: 41
EndChar

StartChar: Otilde
Encoding: 213 213 35
Width: 850
GlyphClass: 2
Flags: W
LayerCount: 2
Fore
SplineSet
750 324 m 0
 750 513 604 658 425 658 c 0
 246 658 100 513 100 324 c 0
 101 130 246 -15 425 -15 c 0
 604 -15 749 130 750 324 c 0
237 324 m 0
 236 465 325 532 429 532 c 0
 533 532 612 465 613 324 c 0
 614 181 530 112 425 112 c 0
 321 112 238 184 237 324 c 0
352 684 m 1
 352 739 439 681 503 681 c 0
 539 681 567 706 567 783 c 1
 502 783 l 1
 502 713 407 781 343 781 c 0
 309 781 283 757 283 684 c 1
 352 684 l 1
EndSplineSet
Validated: 41
EndChar

StartChar: P
Encoding: 80 80 36
Width: 637
GlyphClass: 2
Flags: W
LayerCount: 2
Fore
SplineSet
218 0 m 1
 218 212 l 1
 324 212 l 2
 442 215 537 312 537 431 c 0
 537 549 442 646 324 649 c 2
 100 649 l 1
 100 0 l 1
 218 0 l 1
217 531 m 1
 318 531 l 2
 373 531 418 486 418 431 c 0
 418 375 373 330 318 330 c 2
 217 330 l 1
 217 531 l 1
EndSplineSet
Validated: 9
EndChar

StartChar: Q
Encoding: 81 81 37
Width: 895
GlyphClass: 2
Flags: W
LayerCount: 2
Fore
SplineSet
605 40 m 1
 644 0 l 1
 795 0 l 1
 684 117 l 1
 725 173 750 245 750 324 c 0
 750 513 604 658 425 658 c 0
 246 658 100 513 100 324 c 0
 101 130 246 -15 425 -15 c 0
 492 -15 554 5 605 40 c 1
237 324 m 0
 236 465 325 532 429 532 c 0
 533 532 612 465 613 324 c 0
 614 227 576 165 518 134 c 1
 516 134 l 1
 517 133 l 1
 490 119 458 112 425 112 c 0
 321 112 238 184 237 324 c 0
EndSplineSet
Validated: 41
EndChar

StartChar: R
Encoding: 82 82 38
Width: 637
GlyphClass: 2
Flags: W
LayerCount: 2
Fore
SplineSet
217 0 m 1
 217 212 l 1
 306 212 l 1
 412 0 l 1
 537 0 l 1
 421 238 l 1
 490 274 537 347 537 431 c 0
 537 549 442 646 324 649 c 2
 100 649 l 1
 100 0 l 1
 217 0 l 1
217 531 m 1
 318 531 l 2
 373 531 418 486 418 431 c 0
 418 375 373 330 318 330 c 2
 217 330 l 1
 217 531 l 1
EndSplineSet
Validated: 9
EndChar

StartChar: S
Encoding: 83 83 39
Width: 637
GlyphClass: 2
Flags: W
LayerCount: 2
Fore
SplineSet
324 0 m 2
 442 3 537 100 537 218 c 0
 537 337 442 433 324 436 c 2
 313 436 l 1
 313 330 l 1
 259 333 217 377 217 431 c 0
 217 486 262 531 318 531 c 2
 324 531 l 1
 430 531 l 1
 430 649 l 1
 313 649 l 2
 194 646 100 549 100 431 c 0
 100 312 194 216 313 213 c 2
 324 213 l 1
 324 319 l 1
 377 316 419 272 419 218 c 0
 419 162 374 117 318 117 c 2
 313 117 l 1
 153 117 l 1
 154 0 l 1
 324 0 l 2
EndSplineSet
Validated: 9
EndChar

StartChar: T
Encoding: 84 84 40
Width: 637
GlyphClass: 2
Flags: W
LayerCount: 2
Fore
SplineSet
377 0 m 1
 377 532 l 1
 537 532 l 1
 537 650 l 1
 100 650 l 1
 100 532 l 1
 259 532 l 1
 259 0 l 1
 377 0 l 1
EndSplineSet
Validated: 9
EndChar

StartChar: U
Encoding: 85 85 41
Width: 690
GlyphClass: 2
Flags: W
LayerCount: 2
Fore
SplineSet
589 223 m 2
 590 649 l 1
 472 649 l 1
 472 232 l 2
 472 161 415 104 345 104 c 0
 274 104 217 161 217 232 c 2
 218 649 l 1
 100 649 l 1
 100 232 l 2
 100 96 209 -13 345 -13 c 0
 477 -13 585 92 589 223 c 2
EndSplineSet
Validated: 9
EndChar

StartChar: Uacute
Encoding: 218 218 42
Width: 690
GlyphClass: 2
Flags: W
LayerCount: 2
Fore
SplineSet
589 223 m 2
 590 649 l 1
 472 649 l 1
 472 232 l 2
 472 161 415 104 345 104 c 0
 274 104 217 161 217 232 c 2
 218 649 l 1
 100 649 l 1
 100 232 l 2
 100 96 209 -13 345 -13 c 0
 477 -13 585 92 589 223 c 2
399 701 m 1
 444 789 l 1
 326 789 l 1
 282 701 l 1
 399 701 l 1
EndSplineSet
Validated: 9
EndChar

StartChar: Ucircumflex
Encoding: 219 219 43
Width: 690
GlyphClass: 2
Flags: W
LayerCount: 2
Fore
SplineSet
589 223 m 2
 590 649 l 1
 472 649 l 1
 472 232 l 2
 472 161 415 104 345 104 c 0
 274 104 217 161 217 232 c 2
 218 649 l 1
 100 649 l 1
 100 232 l 2
 100 96 209 -13 345 -13 c 0
 477 -13 585 92 589 223 c 2
510 701 m 1
 408 780 l 1
 282 780 l 1
 180 701 l 1
 510 701 l 1
EndSplineSet
Validated: 9
EndChar

StartChar: Udieresis
Encoding: 220 220 44
Width: 690
GlyphClass: 2
Flags: W
LayerCount: 2
Fore
SplineSet
589 223 m 2
 590 649 l 1
 472 649 l 1
 472 232 l 2
 472 161 415 104 345 104 c 0
 274 104 217 161 217 232 c 2
 218 649 l 1
 100 649 l 1
 100 232 l 2
 100 96 209 -13 345 -13 c 0
 477 -13 585 92 589 223 c 2
310 734 m 0
 310 760 289 782 262 782 c 0
 235 782 214 760 214 734 c 0
 214 707 235 685 262 685 c 0
 289 685 310 707 310 734 c 0
475 734 m 0
 475 760 454 782 428 782 c 0
 400 782 379 760 379 734 c 0
 379 707 400 685 428 685 c 0
 454 685 475 707 475 734 c 0
EndSplineSet
Validated: 9
EndChar

StartChar: Ugrave
Encoding: 217 217 45
Width: 690
GlyphClass: 2
Flags: W
LayerCount: 2
Fore
SplineSet
589 223 m 2
 590 649 l 1
 472 649 l 1
 472 232 l 2
 472 161 415 104 345 104 c 0
 274 104 217 161 217 232 c 2
 218 649 l 1
 100 649 l 1
 100 232 l 2
 100 96 209 -13 345 -13 c 0
 477 -13 585 92 589 223 c 2
426 701 m 1
 382 789 l 1
 264 789 l 1
 309 701 l 1
 426 701 l 1
EndSplineSet
Validated: 9
EndChar

StartChar: V
Encoding: 86 86 46
Width: 743
GlyphClass: 2
Flags: W
LayerCount: 2
Fore
SplineSet
430 0 m 1
 643 649 l 1
 525 649 l 1
 371 183 l 1
 217 649 l 1
 100 649 l 1
 312 0 l 1
 430 0 l 1
EndSplineSet
Validated: 9
EndChar

StartChar: W
Encoding: 87 87 47
Width: 973
GlyphClass: 2
Flags: W
LayerCount: 2
Fore
SplineSet
430 0 m 1
 486 171 l 1
 542 0 l 1
 660 0 l 1
 873 649 l 1
 755 649 l 1
 601 183 l 1
 545 351 l 1
 643 649 l 1
 525 649 l 1
 486 531 l 1
 447 649 l 1
 330 649 l 1
 427 352 l 1
 371 183 l 1
 217 649 l 1
 100 649 l 1
 312 0 l 1
 430 0 l 1
EndSplineSet
Validated: 9
EndChar

StartChar: X
Encoding: 88 88 48
Width: 637
GlyphClass: 2
Flags: W
LayerCount: 2
Fore
SplineSet
218 0 m 1
 319 207 l 1
 419 0 l 1
 537 0 l 1
 378 325 l 1
 537 649 l 1
 419 649 l 1
 319 445 l 1
 212 649 l 1
 100 649 l 1
 259 325 l 1
 100 0 l 1
 218 0 l 1
EndSplineSet
Validated: 9
EndChar

StartChar: Y
Encoding: 89 89 49
Width: 637
GlyphClass: 2
Flags: W
LayerCount: 2
Fore
SplineSet
377 0 m 1
 377 323 l 1
 537 649 l 1
 419 649 l 1
 319 444 l 1
 218 649 l 1
 100 649 l 1
 260 323 l 1
 260 0 l 1
 377 0 l 1
EndSplineSet
Validated: 9
EndChar

StartChar: Z
Encoding: 90 90 50
Width: 637
GlyphClass: 2
Flags: W
LayerCount: 2
Fore
SplineSet
537 0 m 1
 537 117 l 1
 274 117 l 1
 537 649 l 1
 100 649 l 1
 100 531 l 1
 362 531 l 1
 100 0 l 1
 537 0 l 1
EndSplineSet
Validated: 9
EndChar

StartChar: a
Encoding: 97 97 51
Width: 733
GlyphClass: 2
Flags: W
LayerCount: 2
Fore
SplineSet
208 0 m 1
 259 158 l 1
 464 158 l 1
 517 0 l 1
 633 0 l 1
 419 648 l 1
 305 648 l 1
 100 0 l 1
 208 0 l 1
361 465 m 1
 424 275 l 1
 298 275 l 1
 361 465 l 1
EndSplineSet
Validated: 9
EndChar

StartChar: aacute
Encoding: 225 225 52
Width: 733
GlyphClass: 2
Flags: W
LayerCount: 2
Fore
SplineSet
208 0 m 1
 259 158 l 1
 464 158 l 1
 517 0 l 1
 633 0 l 1
 419 648 l 1
 305 648 l 1
 100 0 l 1
 208 0 l 1
361 465 m 1
 424 275 l 1
 298 275 l 1
 361 465 l 1
422 701 m 1
 467 789 l 1
 349 789 l 1
 305 701 l 1
 422 701 l 1
EndSplineSet
Validated: 9
EndChar

StartChar: acircumflex
Encoding: 226 226 53
Width: 733
GlyphClass: 2
Flags: W
LayerCount: 2
Fore
SplineSet
208 0 m 1
 259 158 l 1
 464 158 l 1
 517 0 l 1
 633 0 l 1
 419 648 l 1
 305 648 l 1
 100 0 l 1
 208 0 l 1
361 465 m 1
 424 275 l 1
 298 275 l 1
 361 465 l 1
534 701 m 1
 432 780 l 1
 306 780 l 1
 204 701 l 1
 534 701 l 1
EndSplineSet
Validated: 9
EndChar

StartChar: acute
Encoding: 180 180 54
Width: 362
GlyphClass: 2
Flags: W
LayerCount: 2
Fore
SplineSet
217 701 m 1
 262 789 l 1
 144 789 l 1
 100 701 l 1
 217 701 l 1
EndSplineSet
Validated: 9
EndChar

StartChar: adieresis
Encoding: 228 228 55
Width: 733
GlyphClass: 2
Flags: W
LayerCount: 2
Fore
SplineSet
208 0 m 1
 259 158 l 1
 464 158 l 1
 517 0 l 1
 633 0 l 1
 419 648 l 1
 305 648 l 1
 100 0 l 1
 208 0 l 1
361 465 m 1
 424 275 l 1
 298 275 l 1
 361 465 l 1
329 734 m 0
 329 760 308 782 281 782 c 0
 254 782 233 760 233 734 c 0
 233 707 254 685 281 685 c 0
 308 685 329 707 329 734 c 0
494 734 m 0
 494 760 473 782 447 782 c 0
 419 782 398 760 398 734 c 0
 398 707 419 685 447 685 c 0
 473 685 494 707 494 734 c 0
EndSplineSet
Validated: 9
EndChar

StartChar: agrave
Encoding: 224 224 56
Width: 733
GlyphClass: 2
Flags: W
LayerCount: 2
Fore
SplineSet
208 0 m 1
 259 158 l 1
 464 158 l 1
 517 0 l 1
 633 0 l 1
 419 648 l 1
 305 648 l 1
 100 0 l 1
 208 0 l 1
361 465 m 1
 424 275 l 1
 298 275 l 1
 361 465 l 1
421 701 m 1
 377 789 l 1
 259 789 l 1
 304 701 l 1
 421 701 l 1
EndSplineSet
Validated: 9
EndChar

StartChar: aring
Encoding: 229 229 57
Width: 733
GlyphClass: 2
Flags: W
LayerCount: 2
Fore
SplineSet
208 0 m 1
 259 158 l 1
 464 158 l 1
 517 0 l 1
 633 0 l 1
 419 648 l 1
 305 648 l 1
 100 0 l 1
 208 0 l 1
361 465 m 1
 424 275 l 1
 298 275 l 1
 361 465 l 1
EndSplineSet
Validated: 9
EndChar

StartChar: at
Encoding: 64 64 58
Width: 1222
GlyphClass: 2
Flags: W
LayerCount: 2
Fore
SplineSet
649 -35 m 1
 398 -35 230 91 230 281 c 0
 230 504 386 652 621 652 c 0
 1071 652 1113 200 794 202 c 1
 671 575 l 1
 557 575 l 1
 402 89 l 1
 716 89 l 1
 744 0 l 1
 860 0 l 1
 833 89 l 1
 832 89 l 2
 1268 89 1223 776 621 776 c 0
 308 776 100 578 100 281 c 0
 100 11 320 -158 649 -158 c 1
 649 -35 l 1
614 392 m 1
 677 202 l 1
 551 202 l 1
 614 392 l 1
EndSplineSet
Validated: 37
EndChar

StartChar: atilde
Encoding: 227 227 59
Width: 733
GlyphClass: 2
Flags: W
LayerCount: 2
Fore
SplineSet
208 0 m 1
 259 158 l 1
 464 158 l 1
 517 0 l 1
 633 0 l 1
 419 648 l 1
 305 648 l 1
 100 0 l 1
 208 0 l 1
361 465 m 1
 424 275 l 1
 298 275 l 1
 361 465 l 1
292 684 m 1
 292 739 379 681 443 681 c 0
 479 681 507 706 507 783 c 1
 442 783 l 1
 442 713 347 781 283 781 c 0
 249 781 223 757 223 684 c 1
 292 684 l 1
EndSplineSet
Validated: 41
EndChar

StartChar: b
Encoding: 98 98 60
Width: 636
GlyphClass: 2
Flags: W
LayerCount: 2
Fore
SplineSet
324 0 m 2
 441 3 536 99 536 218 c 0
 536 298 493 368 428 406 c 1
 429 414 430 422 430 430 c 0
 430 549 335 645 218 648 c 2
 105 648 l 1
 100 648 l 1
 100 0 l 1
 324 0 l 2
218 212 m 1
 284 214 344 246 383 295 c 1
 405 276 419 249 419 218 c 0
 419 162 373 117 318 117 c 2
 218 117 l 1
 218 212 l 1
218 531 m 1
 270 528 312 484 312 430 c 0
 312 376 270 333 218 330 c 1
 218 531 l 1
EndSplineSet
Validated: 9
EndChar

StartChar: c
Encoding: 99 99 61
Width: 637
GlyphClass: 2
Flags: W
LayerCount: 2
Fore
SplineSet
536 0 m 1
 537 117 l 1
 425 117 l 2
 310 117 218 210 218 324 c 0
 218 439 310 531 425 531 c 2
 537 531 l 1
 536 649 l 1
 419 649 l 2
 242 646 100 502 100 324 c 0
 100 147 242 3 419 0 c 2
 536 0 l 1
EndSplineSet
Validated: 9
EndChar

StartChar: circumflex
Encoding: 710 710 62
Width: 530
GlyphClass: 2
Flags: W
LayerCount: 2
Fore
SplineSet
430 701 m 1
 328 780 l 1
 202 780 l 1
 100 701 l 1
 430 701 l 1
EndSplineSet
Validated: 9
EndChar

StartChar: colon
Encoding: 58 58 63
Width: 374
GlyphClass: 2
Flags: W
LayerCount: 2
Fore
SplineSet
274 86 m 0
 274 132 235 171 189 171 c 0
 141 171 103 132 103 86 c 0
 103 39 141 0 189 0 c 0
 235 0 274 39 274 86 c 0
271 312 m 0
 271 358 232 397 186 397 c 0
 138 397 100 358 100 312 c 0
 100 265 138 226 186 226 c 0
 232 226 271 265 271 312 c 0
EndSplineSet
Validated: 9
EndChar

StartChar: comma
Encoding: 44 44 64
Width: 419
GlyphClass: 2
Flags: W
LayerCount: 2
Fore
SplineSet
217 -200 m 1
 319 0 l 1
 319 122 l 1
 201 122 l 1
 201 0 l 1
 100 -200 l 1
 217 -200 l 1
EndSplineSet
Validated: 9
EndChar

StartChar: d
Encoding: 100 100 65
Width: 637
GlyphClass: 2
Flags: W
LayerCount: 2
Fore
SplineSet
218 0 m 2
 394 3 537 147 537 324 c 0
 537 502 394 646 218 649 c 2
 100 649 l 1
 100 0 l 1
 218 0 l 2
218 531 m 1
 330 528 419 437 419 324 c 0
 419 212 330 120 218 117 c 1
 218 531 l 1
EndSplineSet
Validated: 9
EndChar

StartChar: dieresis
Encoding: 168 168 66
Width: 461
GlyphClass: 2
Flags: W
LayerCount: 2
Fore
SplineSet
361 734 m 0
 361 760 340 782 314 782 c 0
 286 782 265 760 265 734 c 0
 265 707 286 685 314 685 c 0
 340 685 361 707 361 734 c 0
196 734 m 0
 196 760 175 782 148 782 c 0
 121 782 100 760 100 734 c 0
 100 707 121 685 148 685 c 0
 175 685 196 707 196 734 c 0
EndSplineSet
Validated: 9
EndChar

StartChar: e
Encoding: 101 101 67
Width: 530
GlyphClass: 2
Flags: W
LayerCount: 2
Fore
SplineSet
430 0 m 1
 430 117 l 1
 217 117 l 1
 217 266 l 1
 377 266 l 1
 377 383 l 1
 217 383 l 1
 217 531 l 1
 430 531 l 1
 430 649 l 1
 100 649 l 1
 100 0 l 1
 430 0 l 1
EndSplineSet
Validated: 9
EndChar

StartChar: eacute
Encoding: 233 233 68
Width: 530
GlyphClass: 2
Flags: W
LayerCount: 2
Fore
SplineSet
430 0 m 1
 430 117 l 1
 217 117 l 1
 217 266 l 1
 377 266 l 1
 377 383 l 1
 217 383 l 1
 217 531 l 1
 430 531 l 1
 430 649 l 1
 100 649 l 1
 100 0 l 1
 430 0 l 1
333 701 m 1
 378 789 l 1
 260 789 l 1
 216 701 l 1
 333 701 l 1
EndSplineSet
Validated: 9
EndChar

StartChar: ecircumflex
Encoding: 234 234 69
Width: 532
GlyphClass: 2
Flags: W
LayerCount: 2
Fore
SplineSet
430 0 m 1
 430 117 l 1
 217 117 l 1
 217 266 l 1
 377 266 l 1
 377 383 l 1
 217 383 l 1
 217 531 l 1
 430 531 l 1
 430 649 l 1
 100 649 l 1
 100 0 l 1
 430 0 l 1
432 701 m 1
 330 780 l 1
 204 780 l 1
 102 701 l 1
 432 701 l 1
EndSplineSet
Validated: 9
EndChar

StartChar: edieresis
Encoding: 235 235 70
Width: 530
GlyphClass: 2
Flags: W
LayerCount: 2
Fore
SplineSet
430 0 m 1
 430 117 l 1
 217 117 l 1
 217 266 l 1
 377 266 l 1
 377 383 l 1
 217 383 l 1
 217 531 l 1
 430 531 l 1
 430 649 l 1
 100 649 l 1
 100 0 l 1
 430 0 l 1
233 741 m 0
 233 767 212 789 185 789 c 0
 158 789 137 767 137 741 c 0
 137 714 158 692 185 692 c 0
 212 692 233 714 233 741 c 0
398 741 m 0
 398 767 377 789 351 789 c 0
 323 789 302 767 302 741 c 0
 302 714 323 692 351 692 c 0
 377 692 398 714 398 741 c 0
EndSplineSet
Validated: 9
EndChar

StartChar: egrave
Encoding: 232 232 71
Width: 530
GlyphClass: 2
Flags: W
LayerCount: 2
Fore
SplineSet
430 0 m 1
 430 117 l 1
 217 117 l 1
 217 266 l 1
 377 266 l 1
 377 383 l 1
 217 383 l 1
 217 531 l 1
 430 531 l 1
 430 649 l 1
 100 649 l 1
 100 0 l 1
 430 0 l 1
332 701 m 1
 288 789 l 1
 170 789 l 1
 215 701 l 1
 332 701 l 1
EndSplineSet
Validated: 9
EndChar

StartChar: eight
Encoding: 56 56 72
Width: 620
GlyphClass: 2
Flags: W
LayerCount: 2
Fore
SplineSet
520 186 m 1
 520 236 l 2
 520 268 513 296 502 320 c 1
 514 347 521 379 520 416 c 2
 520 466 l 2
 517 726 100 741 100 466 c 2
 100 416 l 2
 100 382 107 353 119 327 c 1
 107 301 100 271 100 236 c 2
 100 186 l 2
 100 -84 527 -89 520 186 c 1
218 241 m 2
 218 356 402 354 402 241 c 2
 402 192 l 2
 402 49 218 66 218 192 c 2
 218 241 l 2
218 420 m 1
 218 471 l 2
 218 586 402 584 402 471 c 2
 402 416 l 1
 344 442 276 444 218 420 c 1
EndSplineSet
Validated: 41
EndChar

StartChar: exclam
Encoding: 33 33 73
Width: 371
GlyphClass: 2
Flags: W
LayerCount: 2
Fore
SplineSet
132 702 m 1
 132 212 l 1
 250 212 l 1
 250 702 l 1
 132 702 l 1
100 85 m 0
 100 38 138 0 186 0 c 0
 232 0 271 38 271 85 c 0
 271 132 232 171 186 171 c 0
 138 171 100 132 100 85 c 0
EndSplineSet
Validated: 9
EndChar

StartChar: f
Encoding: 102 102 74
Width: 530
GlyphClass: 2
Flags: W
LayerCount: 2
Fore
SplineSet
217 0 m 1
 217 266 l 1
 430 266 l 1
 430 383 l 1
 217 383 l 1
 217 531 l 1
 430 531 l 1
 430 649 l 1
 106 649 l 1
 100 649 l 1
 100 0 l 1
 217 0 l 1
EndSplineSet
Validated: 9
EndChar

StartChar: five
Encoding: 53 53 75
Width: 583
GlyphClass: 2
Flags: W
LayerCount: 2
Fore
SplineSet
271 0 m 2
 388 3 483 99 483 218 c 0
 483 337 388 433 271 436 c 2
 217 436 l 1
 217 531 l 1
 430 531 l 1
 430 649 l 1
 100 649 l 1
 100 319 l 1
 259 319 l 1
 265 319 l 2
 321 319 366 274 366 218 c 0
 366 162 320 117 265 117 c 2
 100 117 l 1
 100 0 l 1
 271 0 l 2
EndSplineSet
Validated: 9
EndChar

StartChar: four
Encoding: 52 52 76
Width: 638
GlyphClass: 2
Flags: W
LayerCount: 2
Fore
SplineSet
484 0 m 1
 485 143 l 1
 538 143 l 1
 538 261 l 1
 485 261 l 1
 484 489 l 1
 367 489 l 1
 368 261 l 1
 245 261 l 1
 325 649 l 1
 212 649 l 1
 100 143 l 1
 368 143 l 1
 367 0 l 1
 484 0 l 1
EndSplineSet
Validated: 9
EndChar

StartChar: g
Encoding: 103 103 77
Width: 637
GlyphClass: 2
Flags: W
LayerCount: 2
Fore
SplineSet
537 0 m 1
 537 333 l 1
 419 333 l 1
 419 118 l 1
 307 121 218 212 218 325 c 0
 218 439 311 532 425 532 c 2
 537 532 l 1
 537 649 l 1
 419 649 l 2
 243 646 100 502 100 325 c 0
 100 148 242 4 419 0 c 1
 537 0 l 1
EndSplineSet
Validated: 9
EndChar

StartChar: grave
Encoding: 96 96 78
Width: 362
GlyphClass: 2
Flags: W
LayerCount: 2
Fore
SplineSet
262 701 m 1
 218 789 l 1
 100 789 l 1
 145 701 l 1
 262 701 l 1
EndSplineSet
Validated: 9
EndChar

StartChar: guillemotleft
Encoding: 171 171 79
Width: 750
GlyphClass: 2
Flags: W
LayerCount: 2
Fore
SplineSet
121 325 m 1
 218 130 l 1
 360 130 l 1
 264 325 l 1
 360 520 l 1
 218 520 l 1
 121 325 l 1
357 325 m 1
 454 130 l 1
 596 130 l 1
 500 325 l 1
 596 520 l 1
 454 520 l 1
 357 325 l 1
EndSplineSet
Validated: 9
EndChar

StartChar: guillemotright
Encoding: 187 187 80
Width: 600
GlyphClass: 2
Flags: W
LayerCount: 2
Fore
SplineSet
306 520 m 1
 402 325 l 1
 306 130 l 1
 448 130 l 1
 545 325 l 1
 448 520 l 1
 306 520 l 1
70 520 m 1
 166 325 l 1
 70 130 l 1
 212 130 l 1
 309 325 l 1
 212 520 l 1
 70 520 l 1
EndSplineSet
Validated: 9
EndChar

StartChar: h
Encoding: 104 104 81
Width: 637
GlyphClass: 2
Flags: W
LayerCount: 2
Fore
SplineSet
217 0 m 1
 217 266 l 1
 419 266 l 1
 419 0 l 1
 537 0 l 1
 537 649 l 1
 419 649 l 1
 419 383 l 1
 217 383 l 1
 217 649 l 1
 100 649 l 1
 100 0 l 1
 217 0 l 1
EndSplineSet
Validated: 9
EndChar

StartChar: hyphen
Encoding: 45 45 82
Width: 530
GlyphClass: 2
Flags: W
LayerCount: 2
Fore
SplineSet
430 220 m 1
 430 338 l 1
 106 338 l 1
 100 338 l 1
 100 220 l 1
 430 220 l 1
EndSplineSet
Validated: 9
EndChar

StartChar: i
Encoding: 105 105 83
Width: 318
GlyphClass: 2
Flags: W
LayerCount: 2
Fore
SplineSet
218 1 m 1
 218 650 l 1
 100 650 l 1
 100 1 l 1
 218 1 l 1
EndSplineSet
Validated: 9
EndChar

StartChar: iacute
Encoding: 237 237 84
Width: 362
GlyphClass: 2
Flags: W
LayerCount: 2
Fore
SplineSet
218 1 m 1
 218 650 l 1
 100 650 l 1
 100 1 l 1
 218 1 l 1
217 701 m 1
 262 789 l 1
 144 789 l 1
 100 701 l 1
 217 701 l 1
EndSplineSet
Validated: 9
EndChar

StartChar: icircumflex
Encoding: 238 238 85
Width: 530
GlyphClass: 2
Flags: W
LayerCount: 2
Fore
SplineSet
325 1 m 1
 325 650 l 1
 207 650 l 1
 207 1 l 1
 325 1 l 1
430 701 m 1
 328 780 l 1
 202 780 l 1
 100 701 l 1
 430 701 l 1
EndSplineSet
Validated: 9
EndChar

StartChar: idieresis
Encoding: 239 239 86
Width: 461
GlyphClass: 2
Flags: W
LayerCount: 2
Fore
SplineSet
289 1 m 1
 289 650 l 1
 171 650 l 1
 171 1 l 1
 289 1 l 1
196 734 m 0
 196 760 175 782 148 782 c 0
 121 782 100 760 100 734 c 0
 100 707 121 685 148 685 c 0
 175 685 196 707 196 734 c 0
361 734 m 0
 361 760 340 782 314 782 c 0
 286 782 265 760 265 734 c 0
 265 707 286 685 314 685 c 0
 340 685 361 707 361 734 c 0
EndSplineSet
Validated: 9
EndChar

StartChar: igrave
Encoding: 236 236 87
Width: 363
GlyphClass: 2
Flags: W
LayerCount: 2
Fore
SplineSet
263 1 m 1
 263 650 l 1
 145 650 l 1
 145 1 l 1
 263 1 l 1
262 701 m 1
 218 789 l 1
 100 789 l 1
 145 701 l 1
 262 701 l 1
EndSplineSet
Validated: 9
EndChar

StartChar: j
Encoding: 106 106 88
Width: 530
GlyphClass: 2
Flags: W
LayerCount: 2
Fore
SplineSet
430 139 m 2
 430 649 l 1
 312 649 l 1
 312 145 l 2
 312 119 291 97 265 97 c 0
 239 97 218 119 218 145 c 2
 218 276 l 1
 100 276 l 1
 100 139 l 2
 103 51 176 -20 265 -20 c 0
 354 -20 427 51 430 139 c 2
EndSplineSet
Validated: 9
EndChar

StartChar: k
Encoding: 107 107 89
Width: 639
GlyphClass: 2
Flags: W
LayerCount: 2
Fore
SplineSet
539 0 m 1
 376 331 l 1
 523 649 l 1
 396 649 l 1
 261 331 l 1
 217 331 l 1
 217 650 l 1
 111 650 l 1
 100 650 l 1
 100 1 l 1
 217 1 l 1
 217 213 l 1
 314 213 l 1
 421 0 l 1
 539 0 l 1
EndSplineSet
Validated: 9
EndChar

StartChar: l
Encoding: 108 108 90
Width: 584
GlyphClass: 2
Flags: W
LayerCount: 2
Fore
SplineSet
484 0 m 1
 484 117 l 1
 218 117 l 1
 218 649 l 1
 100 649 l 1
 100 0 l 1
 484 0 l 1
EndSplineSet
Validated: 9
EndChar

StartChar: m
Encoding: 109 109 91
Width: 849
GlyphClass: 2
Flags: W
LayerCount: 2
Fore
SplineSet
217 0 m 1
 217 467 l 1
 366 266 l 1
 483 266 l 1
 631 467 l 1
 631 0 l 1
 749 0 l 1
 749 649 l 1
 631 649 l 1
 424 387 l 1
 217 649 l 1
 100 649 l 1
 100 0 l 1
 217 0 l 1
EndSplineSet
Validated: 9
EndChar

StartChar: n
Encoding: 110 110 92
Width: 637
GlyphClass: 2
Flags: W
LayerCount: 2
Fore
SplineSet
218 0 m 1
 218 467 l 1
 366 266 l 1
 419 266 l 1
 419 0 l 1
 537 0 l 1
 537 649 l 1
 419 649 l 1
 419 394 l 1
 218 649 l 1
 100 649 l 1
 100 0 l 1
 218 0 l 1
EndSplineSet
Validated: 9
EndChar

StartChar: nine
Encoding: 57 57 93
Width: 620
GlyphClass: 2
Flags: W
LayerCount: 2
Fore
SplineSet
218 198 m 1
 100 198 l 1
 100 182 l 2
 103 -78 520 -93 520 182 c 2
 520 418 l 1
 520 422 l 1
 520 460 l 2
 520 730 93 735 100 460 c 1
 100 422 l 2
 102 253 278 188 402 238 c 1
 402 177 l 2
 402 62 218 64 218 177 c 2
 218 198 l 1
218 454 m 2
 218 597 402 580 402 454 c 2
 402 417 l 2
 402 302 218 304 218 417 c 2
 218 454 l 2
EndSplineSet
Validated: 41
EndChar

StartChar: ntilde
Encoding: 241 241 94
Width: 600
GlyphClass: 2
Flags: W
LayerCount: 2
Fore
SplineSet
218 0 m 1
 218 467 l 1
 366 266 l 1
 419 266 l 1
 419 0 l 1
 537 0 l 1
 537 649 l 1
 419 649 l 1
 419 394 l 1
 218 649 l 1
 100 649 l 1
 100 0 l 1
 218 0 l 1
246 684 m 1
 246 739 333 681 397 681 c 0
 433 681 461 706 461 783 c 1
 396 783 l 1
 396 713 301 781 237 781 c 0
 203 781 177 757 177 684 c 1
 246 684 l 1
EndSplineSet
Validated: 41
EndChar

StartChar: o
Encoding: 111 111 95
Width: 850
GlyphClass: 2
Flags: W
LayerCount: 2
Fore
SplineSet
750 324 m 0
 750 513 604 658 425 658 c 0
 246 658 100 513 100 324 c 0
 101 130 246 -15 425 -15 c 0
 604 -15 749 130 750 324 c 0
237 324 m 0
 236 465 325 532 429 532 c 0
 533 532 612 465 613 324 c 0
 614 181 530 112 425 112 c 0
 321 112 238 184 237 324 c 0
EndSplineSet
Validated: 41
EndChar

StartChar: oacute
Encoding: 243 243 96
Width: 850
GlyphClass: 2
Flags: W
LayerCount: 2
Fore
SplineSet
750 324 m 0
 750 513 604 658 425 658 c 0
 246 658 100 513 100 324 c 0
 101 130 246 -15 425 -15 c 0
 604 -15 749 130 750 324 c 0
237 324 m 0
 236 465 325 532 429 532 c 0
 533 532 612 465 613 324 c 0
 614 181 530 112 425 112 c 0
 321 112 238 184 237 324 c 0
480 701 m 1
 525 789 l 1
 407 789 l 1
 363 701 l 1
 480 701 l 1
EndSplineSet
Validated: 41
EndChar

StartChar: ocircumflex
Encoding: 244 244 97
Width: 850
GlyphClass: 2
Flags: W
LayerCount: 2
Fore
SplineSet
750 324 m 0
 750 513 604 658 425 658 c 0
 246 658 100 513 100 324 c 0
 101 130 246 -15 425 -15 c 0
 604 -15 749 130 750 324 c 0
237 324 m 0
 236 465 325 532 429 532 c 0
 533 532 612 465 613 324 c 0
 614 181 530 112 425 112 c 0
 321 112 238 184 237 324 c 0
590 701 m 1
 488 780 l 1
 362 780 l 1
 260 701 l 1
 590 701 l 1
EndSplineSet
Validated: 41
EndChar

StartChar: odieresis
Encoding: 246 246 98
Width: 850
GlyphClass: 2
Flags: W
LayerCount: 2
Fore
SplineSet
750 324 m 0
 750 513 604 658 425 658 c 0
 246 658 100 513 100 324 c 0
 101 130 246 -15 425 -15 c 0
 604 -15 749 130 750 324 c 0
237 324 m 0
 236 465 325 532 429 532 c 0
 533 532 612 465 613 324 c 0
 614 181 530 112 425 112 c 0
 321 112 238 184 237 324 c 0
392 743 m 0
 392 769 371 791 344 791 c 0
 317 791 296 769 296 743 c 0
 296 716 317 694 344 694 c 0
 371 694 392 716 392 743 c 0
557 743 m 0
 557 769 536 791 510 791 c 0
 482 791 461 769 461 743 c 0
 461 716 482 694 510 694 c 0
 536 694 557 716 557 743 c 0
EndSplineSet
Validated: 41
EndChar

StartChar: ograve
Encoding: 242 242 99
Width: 850
GlyphClass: 2
Flags: W
LayerCount: 2
Fore
SplineSet
750 324 m 0
 750 513 604 658 425 658 c 0
 246 658 100 513 100 324 c 0
 101 130 246 -15 425 -15 c 0
 604 -15 749 130 750 324 c 0
237 324 m 0
 236 465 325 532 429 532 c 0
 533 532 612 465 613 324 c 0
 614 181 530 112 425 112 c 0
 321 112 238 184 237 324 c 0
495 701 m 1
 451 789 l 1
 333 789 l 1
 378 701 l 1
 495 701 l 1
EndSplineSet
Validated: 41
EndChar

StartChar: one
Encoding: 49 49 100
Width: 431
GlyphClass: 2
Flags: W
LayerCount: 2
Fore
SplineSet
331 0 m 1
 331 649 l 1
 217 649 l 1
 100 478 l 1
 214 478 l 1
 214 0 l 1
 331 0 l 1
EndSplineSet
Validated: 9
EndChar

StartChar: otilde
Encoding: 245 245 101
Width: 850
GlyphClass: 2
Flags: W
LayerCount: 2
Fore
SplineSet
750 324 m 0
 750 513 604 658 425 658 c 0
 246 658 100 513 100 324 c 0
 101 130 246 -15 425 -15 c 0
 604 -15 749 130 750 324 c 0
237 324 m 0
 236 465 325 532 429 532 c 0
 533 532 612 465 613 324 c 0
 614 181 530 112 425 112 c 0
 321 112 238 184 237 324 c 0
352 684 m 1
 352 739 439 681 503 681 c 0
 539 681 567 706 567 783 c 1
 502 783 l 1
 502 713 407 781 343 781 c 0
 309 781 283 757 283 684 c 1
 352 684 l 1
EndSplineSet
Validated: 41
EndChar

StartChar: p
Encoding: 112 112 102
Width: 637
GlyphClass: 2
Flags: W
LayerCount: 2
Fore
SplineSet
218 0 m 1
 218 212 l 1
 324 212 l 2
 442 215 537 312 537 431 c 0
 537 549 442 646 324 649 c 2
 100 649 l 1
 100 0 l 1
 218 0 l 1
217 531 m 1
 318 531 l 2
 373 531 418 486 418 431 c 0
 418 375 373 330 318 330 c 2
 217 330 l 1
 217 531 l 1
EndSplineSet
Validated: 9
EndChar

StartChar: period
Encoding: 46 46 103
Width: 371
GlyphClass: 2
Flags: W
LayerCount: 2
Fore
SplineSet
271 86 m 0
 271 132 232 171 186 171 c 0
 138 171 100 132 100 86 c 0
 100 39 138 0 186 0 c 0
 232 0 271 39 271 86 c 0
EndSplineSet
Validated: 9
EndChar

StartChar: q
Encoding: 113 113 104
Width: 895
GlyphClass: 2
Flags: W
LayerCount: 2
Fore
SplineSet
605 40 m 1
 644 0 l 1
 795 0 l 1
 684 117 l 1
 725 173 750 245 750 324 c 0
 750 513 604 658 425 658 c 0
 246 658 100 513 100 324 c 0
 101 130 246 -15 425 -15 c 0
 492 -15 554 5 605 40 c 1
237 324 m 0
 236 465 325 532 429 532 c 0
 533 532 612 465 613 324 c 0
 614 227 576 165 518 134 c 1
 516 134 l 1
 517 133 l 1
 490 119 458 112 425 112 c 0
 321 112 238 184 237 324 c 0
EndSplineSet
Validated: 41
EndChar

StartChar: question
Encoding: 63 63 105
Width: 583
GlyphClass: 2
Flags: W
LayerCount: 2
Fore
SplineSet
100 702 m 1
 100 585 l 1
 265 585 l 2
 321 585 366 540 366 484 c 0
 366 428 321 383 265 383 c 2
 153 383 l 1
 153 213 l 1
 271 213 l 1
 271 266 l 1
 388 269 483 365 483 484 c 0
 483 603 388 699 271 702 c 2
 100 702 l 1
132 85 m 0
 132 38 170 0 217 0 c 0
 264 0 303 38 303 85 c 0
 303 132 264 171 217 171 c 0
 170 171 132 132 132 85 c 0
EndSplineSet
Validated: 9
EndChar

StartChar: quotesingle
Encoding: 39 39 106
Width: 424
GlyphClass: 2
Flags: W
LayerCount: 2
Fore
SplineSet
217 425 m 1
 324 649 l 1
 206 649 l 1
 100 425 l 1
 217 425 l 1
EndSplineSet
Validated: 9
EndChar

StartChar: r
Encoding: 114 114 107
Width: 637
GlyphClass: 2
Flags: W
LayerCount: 2
Fore
SplineSet
217 0 m 1
 217 212 l 1
 306 212 l 1
 412 0 l 1
 537 0 l 1
 421 238 l 1
 489 274 536 347 536 431 c 0
 536 549 441 646 324 649 c 2
 100 649 l 1
 100 0 l 1
 217 0 l 1
217 531 m 1
 318 531 l 2
 373 531 419 486 419 431 c 0
 419 375 373 330 318 330 c 2
 217 330 l 1
 217 531 l 1
EndSplineSet
Validated: 9
EndChar

StartChar: s
Encoding: 115 115 108
Width: 637
GlyphClass: 2
Flags: W
LayerCount: 2
Fore
SplineSet
324 0 m 2
 442 3 537 100 537 218 c 0
 537 337 442 433 324 436 c 2
 313 436 l 1
 313 330 l 1
 259 333 217 377 217 431 c 0
 217 486 262 531 318 531 c 2
 324 531 l 1
 430 531 l 1
 430 649 l 1
 313 649 l 2
 194 646 100 549 100 431 c 0
 100 312 194 216 313 213 c 2
 324 213 l 1
 324 319 l 1
 377 316 419 272 419 218 c 0
 419 162 374 117 318 117 c 2
 313 117 l 1
 153 117 l 1
 154 0 l 1
 324 0 l 2
EndSplineSet
Validated: 9
EndChar

StartChar: semicolon
Encoding: 59 59 109
Width: 444
GlyphClass: 2
Flags: W
LayerCount: 2
Fore
SplineSet
217 -200 m 1
 319 0 l 1
 319 122 l 1
 201 122 l 1
 201 0 l 1
 100 -200 l 1
 217 -200 l 1
344 311 m 0
 344 358 306 396 259 396 c 0
 212 396 174 358 174 311 c 0
 174 264 212 225 259 225 c 0
 306 225 344 264 344 311 c 0
EndSplineSet
Validated: 9
EndChar

StartChar: seven
Encoding: 55 55 110
Width: 583
GlyphClass: 2
Flags: W
LayerCount: 2
Fore
SplineSet
305 0 m 1
 483 650 l 1
 100 650 l 1
 100 532 l 1
 338 532 l 1
 187 0 l 1
 305 0 l 1
EndSplineSet
Validated: 9
EndChar

StartChar: six
Encoding: 54 54 111
Width: 620
GlyphClass: 2
Flags: W
LayerCount: 2
Fore
SplineSet
520 186 m 1
 520 224 l 2
 518 393 342 458 218 408 c 1
 218 469 l 2
 218 584 402 582 402 469 c 2
 402 448 l 1
 520 448 l 1
 520 464 l 2
 517 724 100 739 100 464 c 2
 100 228 l 1
 100 224 l 1
 100 186 l 2
 100 -84 527 -89 520 186 c 1
218 229 m 2
 218 344 402 342 402 229 c 2
 402 192 l 2
 402 49 218 66 218 192 c 2
 218 229 l 2
EndSplineSet
Validated: 41
EndChar

StartChar: t
Encoding: 116 116 113
Width: 637
GlyphClass: 2
Flags: W
LayerCount: 2
Fore
SplineSet
377 0 m 1
 377 532 l 1
 537 532 l 1
 537 650 l 1
 100 650 l 1
 100 532 l 1
 259 532 l 1
 259 0 l 1
 377 0 l 1
EndSplineSet
Validated: 9
EndChar

StartChar: three
Encoding: 51 51 114
Width: 636
GlyphClass: 2
Flags: W
LayerCount: 2
Fore
SplineSet
323 0 m 2
 442 3 536 99 536 218 c 0
 536 304 486 378 414 414 c 1
 424 435 430 459 430 484 c 0
 430 573 359 646 271 649 c 2
 100 649 l 1
 100 531 l 1
 212 531 l 1
 265 531 l 2
 291 531 312 510 312 484 c 0
 312 458 291 436 265 436 c 2
 153 436 l 1
 153 319 l 1
 318 319 l 2
 371 319 419 274 419 218 c 0
 419 162 374 117 318 117 c 2
 153 117 l 1
 153 0 l 1
 323 0 l 2
EndSplineSet
Validated: 9
EndChar

StartChar: tilde
Encoding: 732 732 115
Width: 484
GlyphClass: 2
Flags: W
LayerCount: 2
Fore
SplineSet
169 684 m 1
 169 739 256 681 320 681 c 0
 356 681 384 706 384 783 c 1
 319 783 l 1
 319 713 224 781 160 781 c 0
 126 781 100 757 100 684 c 1
 169 684 l 1
EndSplineSet
Validated: 41
EndChar

StartChar: two
Encoding: 50 50 116
Width: 587
GlyphClass: 2
Flags: W
LayerCount: 2
Fore
SplineSet
487 0 m 1
 487 117 l 1
 259 117 l 1
 291 214 l 1
 401 225 487 318 487 431 c 0
 487 549 392 646 274 649 c 2
 157 649 l 1
 157 531 l 1
 263 531 l 1
 269 531 l 2
 324 531 369 486 369 431 c 0
 369 375 324 330 269 330 c 2
 263 330 l 1
 211 330 l 1
 100 0 l 1
 487 0 l 1
EndSplineSet
Validated: 9
EndChar

StartChar: u
Encoding: 117 117 117
Width: 690
GlyphClass: 2
Flags: W
LayerCount: 2
Fore
SplineSet
589 223 m 2
 590 649 l 1
 472 649 l 1
 472 232 l 2
 472 161 415 104 345 104 c 0
 274 104 217 161 217 232 c 2
 218 649 l 1
 100 649 l 1
 100 232 l 2
 100 96 209 -13 345 -13 c 0
 477 -13 585 92 589 223 c 2
EndSplineSet
Validated: 9
EndChar

StartChar: uacute
Encoding: 250 250 118
Width: 690
GlyphClass: 2
Flags: W
LayerCount: 2
Fore
SplineSet
589 223 m 2
 590 649 l 1
 472 649 l 1
 472 232 l 2
 472 161 415 104 345 104 c 0
 274 104 217 161 217 232 c 2
 218 649 l 1
 100 649 l 1
 100 232 l 2
 100 96 209 -13 345 -13 c 0
 477 -13 585 92 589 223 c 2
399 701 m 1
 444 789 l 1
 326 789 l 1
 282 701 l 1
 399 701 l 1
EndSplineSet
Validated: 9
EndChar

StartChar: ucircumflex
Encoding: 251 251 119
Width: 690
GlyphClass: 2
Flags: W
LayerCount: 2
Fore
SplineSet
589 223 m 2
 590 649 l 1
 472 649 l 1
 472 232 l 2
 472 161 415 104 345 104 c 0
 274 104 217 161 217 232 c 2
 218 649 l 1
 100 649 l 1
 100 232 l 2
 100 96 209 -13 345 -13 c 0
 477 -13 585 92 589 223 c 2
510 701 m 1
 408 780 l 1
 282 780 l 1
 180 701 l 1
 510 701 l 1
EndSplineSet
Validated: 9
EndChar

StartChar: udieresis
Encoding: 252 252 120
Width: 690
GlyphClass: 2
Flags: W
LayerCount: 2
Fore
SplineSet
589 223 m 2
 590 649 l 1
 472 649 l 1
 472 232 l 2
 472 161 415 104 345 104 c 0
 274 104 217 161 217 232 c 2
 218 649 l 1
 100 649 l 1
 100 232 l 2
 100 96 209 -13 345 -13 c 0
 477 -13 585 92 589 223 c 2
310 734 m 0
 310 760 289 782 262 782 c 0
 235 782 214 760 214 734 c 0
 214 707 235 685 262 685 c 0
 289 685 310 707 310 734 c 0
475 734 m 0
 475 760 454 782 428 782 c 0
 400 782 379 760 379 734 c 0
 379 707 400 685 428 685 c 0
 454 685 475 707 475 734 c 0
EndSplineSet
Validated: 9
EndChar

StartChar: ugrave
Encoding: 249 249 121
Width: 690
GlyphClass: 2
Flags: W
LayerCount: 2
Fore
SplineSet
589 223 m 2
 590 649 l 1
 472 649 l 1
 472 232 l 2
 472 161 415 104 345 104 c 0
 274 104 217 161 217 232 c 2
 218 649 l 1
 100 649 l 1
 100 232 l 2
 100 96 209 -13 345 -13 c 0
 477 -13 585 92 589 223 c 2
426 701 m 1
 382 789 l 1
 264 789 l 1
 309 701 l 1
 426 701 l 1
EndSplineSet
Validated: 9
EndChar

StartChar: v
Encoding: 118 118 123
Width: 743
GlyphClass: 2
Flags: W
LayerCount: 2
Fore
SplineSet
430 0 m 1
 643 649 l 1
 525 649 l 1
 371 183 l 1
 217 649 l 1
 100 649 l 1
 312 0 l 1
 430 0 l 1
EndSplineSet
Validated: 9
EndChar

StartChar: w
Encoding: 119 119 124
Width: 973
GlyphClass: 2
Flags: W
LayerCount: 2
Fore
SplineSet
430 0 m 1
 486 171 l 1
 542 0 l 1
 660 0 l 1
 873 649 l 1
 755 649 l 1
 601 183 l 1
 545 351 l 1
 643 649 l 1
 525 649 l 1
 486 531 l 1
 447 649 l 1
 330 649 l 1
 427 352 l 1
 371 183 l 1
 217 649 l 1
 100 649 l 1
 312 0 l 1
 430 0 l 1
EndSplineSet
Validated: 9
EndChar

StartChar: x
Encoding: 120 120 125
Width: 637
GlyphClass: 2
Flags: W
LayerCount: 2
Fore
SplineSet
218 0 m 1
 319 207 l 1
 419 0 l 1
 537 0 l 1
 378 325 l 1
 537 649 l 1
 419 649 l 1
 319 445 l 1
 212 649 l 1
 100 649 l 1
 259 325 l 1
 100 0 l 1
 218 0 l 1
EndSplineSet
Validated: 9
EndChar

StartChar: y
Encoding: 121 121 126
Width: 637
GlyphClass: 2
Flags: W
LayerCount: 2
Fore
SplineSet
377 0 m 1
 377 323 l 1
 537 649 l 1
 419 649 l 1
 319 444 l 1
 218 649 l 1
 100 649 l 1
 260 323 l 1
 260 0 l 1
 377 0 l 1
EndSplineSet
Validated: 9
EndChar

StartChar: z
Encoding: 122 122 127
Width: 637
GlyphClass: 2
Flags: W
LayerCount: 2
Fore
SplineSet
537 0 m 1
 537 117 l 1
 274 117 l 1
 537 649 l 1
 100 649 l 1
 100 531 l 1
 362 531 l 1
 100 0 l 1
 537 0 l 1
EndSplineSet
Validated: 9
EndChar

StartChar: zero
Encoding: 48 48 128
Width: 620
GlyphClass: 2
Flags: W
LayerCount: 2
Fore
SplineSet
520 193 m 1
 520 464 l 2
 518 604 415 673 312 673 c 0
 206 673 100 606 100 464 c 2
 100 193 l 2
 100 53 207 -17 312 -18 c 0
 418 -18 524 50 520 193 c 1
218 464 m 2
 218 526 265 557 312 557 c 0
 357 556 402 525 402 464 c 2
 402 193 l 2
 402 125 357 92 312 92 c 0
 266 93 220 127 218 193 c 2
 218 464 l 2
EndSplineSet
Validated: 41
EndChar
